<svg width="28" height="51" viewBox="0 0 28 51" fill="none" xmlns="http://www.w3.org/2000/svg">
<path d="M27.4983 10.2975C26.9011 8.48947 25.3004 8.09029 24.4882 7.0571C23.7476 5.97695 23.8432 4.35673 22.2903 3.2531C20.7375 2.14947 19.1846 2.71303 17.9185 2.36081C16.6523 2.00859 15.7923 0.552734 13.8572 0.552734C11.9221 0.552734 11.0382 1.91466 9.79594 2.36081C8.55367 2.80696 7.00083 2.12599 5.4241 3.2531C3.84737 4.38021 3.96682 5.97695 3.22623 7.0571C2.41398 8.09029 0.83725 8.48947 0.216114 10.2975C-0.405022 12.1056 0.717801 13.3501 0.717801 14.6416C0.717801 15.9331 -0.476691 17.1776 0.216114 18.9857C0.908919 20.7938 2.41398 21.1929 3.22623 22.2261C3.96682 23.3063 3.87126 24.9265 5.4241 26.0301C6.97694 27.1338 8.52978 26.5702 9.79594 26.9224C11.0621 27.2747 11.9221 28.7305 13.8572 28.7305C15.7923 28.7305 16.6762 27.3686 17.9185 26.9224C19.1608 26.4763 20.7136 27.1572 22.2903 26.0301C23.8671 24.903 23.7476 23.3063 24.4882 22.2261C25.3004 21.1929 26.8772 20.7938 27.4983 18.9857C28.1194 17.1776 26.9966 15.9331 26.9966 14.6416C26.9966 13.3501 28.1911 12.1056 27.4983 10.2975ZM13.8572 24.0342C11.9672 24.0342 10.1197 23.4833 8.54822 22.4513C6.97676 21.4192 5.75194 19.9523 5.02868 18.236C4.30541 16.5197 4.11617 14.6312 4.48489 12.8092C4.85361 10.9872 5.76372 9.31363 7.10015 8.00005C8.43657 6.68648 10.1393 5.79192 11.9929 5.42951C13.8466 5.06709 15.768 5.2531 17.5141 5.964C19.2602 6.6749 20.7527 7.87877 21.8027 9.42338C22.8527 10.968 23.4132 12.7839 23.4132 14.6416C23.4132 17.1327 22.4064 19.5217 20.6143 21.2832C18.8222 23.0446 16.3916 24.0342 13.8572 24.0342ZM18.6352 14.6416C18.6352 15.5705 18.355 16.4784 17.8299 17.2507C17.3049 18.023 16.5587 18.625 15.6857 18.9804C14.8126 19.3359 13.8519 19.4289 12.9251 19.2477C11.9982 19.0665 11.1469 18.6192 10.4787 17.9624C9.81047 17.3056 9.35541 16.4688 9.17105 15.5578C8.98669 14.6468 9.08131 13.7026 9.44295 12.8444C9.80458 11.9863 10.417 11.2528 11.2027 10.7368C11.9885 10.2208 12.9122 9.94532 13.8572 9.94532C15.1244 9.94532 16.3397 10.4401 17.2357 11.3208C18.1318 12.2016 18.6352 13.3961 18.6352 14.6416ZM17.9424 32.3936L16.4373 40.8469L14.6934 50.5448L8.45811 44.6979L0.574462 48.1027L3.75181 30.4916C5.152 31.1788 6.70247 31.5175 8.26699 31.4778C9.22633 32.1971 10.3112 32.7382 11.4682 33.0746C12.2416 33.3112 13.0473 33.43 13.8572 33.4268C15.2864 33.4312 16.6929 33.0755 17.9424 32.3936ZM28 39.9547L21.8364 37.7944L23.0548 30.8908C23.782 30.6411 24.4666 30.2849 25.0854 29.8341L25.3721 29.5993L28 39.9547Z" fill="black"/>
</svg>
