<svg width="24" height="23" viewBox="0 0 24 23" fill="none" xmlns="http://www.w3.org/2000/svg">
<path d="M4.0001 9.19454H9.2001C9.4213 9.19454 9.6001 9.01534 9.6001 8.79454C9.6001 8.57374 9.4213 8.39454 9.2001 8.39454H4.0001C3.7789 8.39454 3.6001 8.57374 3.6001 8.79454C3.6001 9.01534 3.7789 9.19454 4.0001 9.19454Z" fill="white"/>
<path d="M14.4001 10.7942H4.0001C3.7789 10.7942 3.6001 10.9734 3.6001 11.1942C3.6001 11.415 3.7789 11.5942 4.0001 11.5942H14.4001C14.6213 11.5942 14.8001 11.415 14.8001 11.1942C14.8001 10.9734 14.6213 10.7942 14.4001 10.7942Z" fill="white"/>
<path d="M14.4001 13.1938H4.0001C3.7789 13.1938 3.6001 13.373 3.6001 13.5938C3.6001 13.8146 3.7789 13.9938 4.0001 13.9938H14.4001C14.6213 13.9938 14.8001 13.8146 14.8001 13.5938C14.8001 13.373 14.6213 13.1938 14.4001 13.1938Z" fill="white"/>
<path d="M21.6288 0.0238662L7.972 -0.00412941C6.664 -0.00412941 5.6 1.0597 5.6 2.36749V4.41677L2.372 4.42357C1.064 4.42357 0 5.4874 0 6.79519V15.2502C0 16.558 1.064 17.6215 2.372 17.6215H4.8V21.6208C4.8 21.786 4.9016 21.9344 5.056 21.994C5.1028 22.012 5.1516 22.0208 5.2 22.0208C5.3104 22.0208 5.4188 21.9748 5.496 21.89L9.3776 17.6207L16.028 17.5935C17.336 17.5935 18.4 16.5296 18.4 15.2223V15.1771L20.504 17.4911C20.5812 17.5759 20.6896 17.6219 20.8 17.6219C20.8484 17.6219 20.8972 17.6131 20.944 17.5951C21.0984 17.5355 21.2 17.3871 21.2 17.2219V13.2226H21.628C22.936 13.2226 24 12.1587 24 10.8513V2.39549C24 1.0881 22.9364 0.0242661 21.6288 0.0238662ZM17.6 15.2219C17.6 16.0885 16.8948 16.7932 16.0264 16.7932L9.1984 16.8212C9.0864 16.8216 8.9792 16.8692 8.904 16.952L5.6 20.5862V17.2211C5.6 17.0004 5.4212 16.8212 5.2 16.8212H2.372C1.5052 16.8212 0.8 16.1161 0.8 15.2498V6.79479C0.8 5.92813 1.5052 5.22304 2.3728 5.22304L6 5.21544C6.0004 5.21544 6.0004 5.21544 6.0008 5.21544L16.028 5.19464C16.8948 5.19464 17.6 5.89973 17.6 6.7664V14.1416V15.2219ZM23.2 10.8505C23.2 11.7172 22.4948 12.4219 21.628 12.4219H20.8C20.5788 12.4219 20.4 12.6011 20.4 12.8218V16.1869L18.4 13.9872V6.7668C18.4 5.459 17.336 4.39517 16.0272 4.39517L6.4 4.41477V2.36709C6.4 1.50043 7.1052 0.795344 7.9712 0.795344L21.6276 0.823339C21.628 0.823339 21.628 0.823339 21.6284 0.823339C22.4952 0.823339 23.2004 1.52843 23.2004 2.39509L23.2 10.8505Z" fill="white"/>
</svg>
