<svg width="50" height="50" viewBox="0 0 50 50" fill="none" xmlns="http://www.w3.org/2000/svg">
<path d="M30.5556 23.75C31.4675 23.75 32.3705 23.5883 33.2131 23.2742C34.0556 22.9602 34.8212 22.4998 35.466 21.9194C36.1109 21.3391 36.6224 20.6501 36.9714 19.8918C37.3204 19.1335 37.5 18.3208 37.5 17.5C37.5 15.8424 36.7684 14.2527 35.466 13.0806C34.1637 11.9085 32.3973 11.25 30.5556 11.25C28.7138 11.25 26.9474 11.9085 25.6451 13.0806C24.3428 14.2527 23.6111 15.8424 23.6111 17.5C23.6111 18.3208 23.7907 19.1335 24.1397 19.8918C24.4887 20.6501 25.0002 21.3391 25.6451 21.9194C26.9474 23.0915 28.7138 23.75 30.5556 23.75ZM30.5556 0C41.2778 0 50 7.825 50 17.5C50 30.625 30.5556 50 30.5556 50C30.5556 50 11.1111 30.625 11.1111 17.5C11.1111 12.8587 13.1597 8.40752 16.8063 5.12563C20.4528 1.84374 25.3986 0 30.5556 0ZM5.55556 17.5C5.55556 28.75 19.6667 44.15 22.2222 47.025L19.4444 50C19.4444 50 0 30.625 0 17.5C0 9.575 5.86111 2.875 13.8889 0.725C8.77778 4.85 5.55556 10.825 5.55556 17.5Z" fill="black"/>
</svg>
