<svg width="46" height="35" viewBox="0 0 46 35" fill="none" xmlns="http://www.w3.org/2000/svg">
<path d="M35.5455 31.0909C34.7136 31.0909 33.9159 30.7604 33.3277 30.1723C32.7395 29.5841 32.4091 28.7863 32.4091 27.9545C32.4091 27.1227 32.7395 26.325 33.3277 25.7368C33.9159 25.1486 34.7136 24.8182 35.5455 24.8182C36.3773 24.8182 37.175 25.1486 37.7632 25.7368C38.3514 26.325 38.6818 27.1227 38.6818 27.9545C38.6818 28.7863 38.3514 29.5841 37.7632 30.1723C37.175 30.7604 36.3773 31.0909 35.5455 31.0909ZM38.6818 12.2727L42.78 17.5H33.4545V12.2727M10.4545 31.0909C9.62273 31.0909 8.82498 30.7604 8.2368 30.1723C7.64862 29.5841 7.31818 28.7863 7.31818 27.9545C7.31818 27.1227 7.64862 26.325 8.2368 25.7368C8.82498 25.1486 9.62273 24.8182 10.4545 24.8182C11.2864 24.8182 12.0841 25.1486 12.6723 25.7368C13.2605 26.325 13.5909 27.1227 13.5909 27.9545C13.5909 28.7863 13.2605 29.5841 12.6723 30.1723C12.0841 30.7604 11.2864 31.0909 10.4545 31.0909ZM39.7273 9.13634H33.4545V0.772705H4.18182C1.86091 0.772705 0 2.63361 0 4.95452V27.9545H4.18182C4.18182 29.6182 4.84269 31.2136 6.01906 32.39C7.19542 33.5664 8.79091 34.2272 10.4545 34.2272C12.1182 34.2272 13.7137 33.5664 14.89 32.39C16.0664 31.2136 16.7273 29.6182 16.7273 27.9545H29.2727C29.2727 29.6182 29.9336 31.2136 31.11 32.39C32.2863 33.5664 33.8818 34.2272 35.5455 34.2272C37.2091 34.2272 38.8046 33.5664 39.9809 32.39C41.1573 31.2136 41.8182 29.6182 41.8182 27.9545H46V17.5L39.7273 9.13634Z" fill="black"/>
</svg>
